<svg xmlns="http://www.w3.org/2000/svg" width="2500" viewBox="0 0 1874.88 750" height="1000" version="1.0"><defs><clipPath id="h"><path d="M538.84 272.426h4.476v4.48h-4.476zm0 0"/></clipPath><clipPath id="a"><path d="M0 .023h1874.762v749.954H0zm0 0"/></clipPath><clipPath id="c"><path d="M337.45 132.742h161.503v161.504H337.45zm0 0"/></clipPath><clipPath id="d"><path d="M337.45 455.57h161.503v161.504H337.45zm0 0"/></clipPath><clipPath id="e"><path d="M1375.742 455.57h161.508v161.504h-161.508zm0 0"/></clipPath><clipPath id="f"><path d="M1375.742 132.742h161.508v161.504h-161.508zm0 0"/></clipPath><clipPath id="g"><path d="M538.84 272.426h46.582v46.582H538.84zm0 0"/></clipPath><clipPath id="b"><path d="M337.45 132.742h1199.98v484.516H337.45zm0 0"/></clipPath><clipPath id="i"><path d="M502.992 236.578h35.832v35.836h-35.832zm0 0"/></clipPath><clipPath id="j"><path d="M535.25 268.836h3.582v3.582h-3.582zm0 0"/></clipPath><clipPath id="k"><path d="M1302.613 397.586h46.582v46.582h-46.582zm0 0"/></clipPath><clipPath id="l"><path d="M1344.727 397.586h4.48v4.48h-4.48zm0 0"/></clipPath><clipPath id="m"><path d="M1349.207 361.742h35.832v35.836h-35.832zm0 0"/></clipPath><clipPath id="n"><path d="M1349.207 393.996h3.582v3.582h-3.582zm0 0"/></clipPath><clipPath id="o"><path d="M1366.91 362.176h35.832v35.836h-35.832zm0 0"/></clipPath></defs><g clip-path="url(#a)"><path fill="#fff" d="M0 .023h1874.879v757.454H0zm0 0"/><path fill="#fdd840" d="M0 .023h1874.879v749.954H0zm0 0"/><path fill="#fff" d="M0 .023h1874.879v749.954H0zm0 0"/><path fill="#fdd840" d="M0 .023h1874.879v749.954H0zm0 0"/></g><g clip-path="url(#b)"><path fill="#fff" d="M1515.77 617.258H359.113c-11.937 0-21.664-9.727-21.664-21.664V154.406c0-11.937 9.727-21.664 21.664-21.664H1515.77c11.933 0 21.66 9.727 21.66 21.664v441.188c0 11.937-9.727 21.664-21.66 21.664"/></g><g clip-path="url(#c)"><path fill="#fff" d="M488.453 294.246h-140.5c-5.789 0-10.504-4.715-10.504-10.5v-140.5c0-5.789 4.715-10.504 10.504-10.504h140.5c5.785 0 10.5 4.715 10.5 10.504v140.5c0 5.785-4.715 10.5-10.5 10.5"/></g><g clip-path="url(#d)"><path fill="#fff" d="M488.453 617.074h-140.5c-5.789 0-10.504-4.715-10.504-10.5v-140.5c0-5.789 4.715-10.504 10.504-10.504h140.5c5.785 0 10.5 4.715 10.5 10.504v140.5c0 5.785-4.715 10.5-10.5 10.5"/></g><g clip-path="url(#e)"><path fill="#fff" d="M1526.746 617.074h-140.5c-5.789 0-10.504-4.715-10.504-10.5v-140.5c0-5.789 4.715-10.504 10.504-10.504h140.5c5.785 0 10.504 4.715 10.504 10.504v140.5c0 5.785-4.719 10.5-10.504 10.5"/></g><g clip-path="url(#f)"><path fill="#fff" d="M1526.746 294.246h-140.5c-5.789 0-10.504-4.715-10.504-10.5v-140.5c0-5.789 4.715-10.504 10.504-10.504h140.5c5.785 0 10.504 4.715 10.504 10.504v140.5c0 5.785-4.719 10.5-10.504 10.5"/></g><path d="M585.451 500.935V339.69c0-3.105-1.672-4.777-4.777-4.777h-37.027c-3.106 0-4.778 1.672-4.778 4.777v161.246c0 3.106 1.672 4.778 4.778 4.778h37.027c3.105 0 4.777-1.672 4.777-4.778zM622.239 505.713h36.55c3.106 0 4.778-1.672 4.778-4.778v-22.933c0-21.5-2.148-47.059-5.254-70.23l.953-.239c4.54 13.375 17.442 42.996 29.383 63.305l18.871 31.531c1.195 2.149 3.106 3.344 5.735 3.344h38.222c3.106 0 4.778-1.672 4.778-4.778V339.69c0-3.105-1.672-4.777-4.778-4.777h-36.55c-3.106 0-4.778 1.672-4.778 4.777v29.383c0 19.59.957 40.61 3.106 63.067l-.958.238c-3.82-10.988-15.046-34.879-26.992-57.813l-19.11-36.308c-1.194-2.387-2.866-3.344-5.495-3.344h-38.461c-3.106 0-4.777 1.672-4.777 4.777v161.246c0 3.106 1.671 4.778 4.777 4.778zM834.844 463.908V439.78H887.4c3.106 0 4.778-1.672 4.778-4.777v-31.293c0-3.106-1.672-4.777-4.778-4.777h-52.555v-22.215h61.872c3.105 0 4.777-1.672 4.777-4.778v-32.25c0-3.105-1.672-4.777-4.777-4.777H793.04c-3.106 0-4.778 1.672-4.778 4.777v161.246c0 3.106 1.672 4.778 4.778 4.778h107.738c3.106 0 4.777-1.672 4.777-4.778v-32.25c0-3.105-1.671-4.777-4.777-4.777zM1048.883 334.912H922.516c-3.106 0-4.778 1.672-4.778 4.777v33.922c0 3.106 1.672 4.778 4.778 4.778h39.894v122.546c0 3.106 1.672 4.778 4.778 4.778h37.027c3.106 0 4.777-1.672 4.777-4.778V378.39h39.891c3.105 0 4.777-1.672 4.777-4.778V339.69c0-3.105-1.672-4.777-4.777-4.777zM1210.607 439.541v-38.938c0-43.476-26.516-69.035-71.664-69.035-45.149 0-71.664 25.559-71.664 69.035v38.938c0 43.719 26.515 69.516 71.664 69.516 45.148 0 71.664-25.797 71.664-69.516zm-95.551-1.191v-36.551c0-17.2 7.883-26.04 23.887-26.04s23.89 8.84 23.89 26.04v36.55c0 17.438-7.886 26.516-23.89 26.516s-23.887-9.078-23.887-26.515zM1242.139 505.713h102.48c3.106 0 4.781-1.672 4.781-4.778v-33.921c0-3.106-1.675-4.778-4.78-4.778h-60.677V339.69c0-3.105-1.672-4.777-4.777-4.777h-37.027c-3.106 0-4.778 1.672-4.778 4.777v161.246c0 3.106 1.672 4.778 4.778 4.778zm0 0"/><g clip-path="url(#g)"><path fill="#2c2f33" d="M582.39 319.008h-40.523a3.032 3.032 0 0 1-3.027-3.028v-40.527a3.032 3.032 0 0 1 3.027-3.027h40.524a3.033 3.033 0 0 1 3.03 3.027v40.527a3.033 3.033 0 0 1-3.03 3.028"/></g><g clip-path="url(#h)"><path fill="#2c2f33" d="M538.84 272.426h4.476v4.48h-4.476v-4.48"/></g><g clip-path="url(#i)"><path fill="#50565d" d="M505.324 236.578h31.172a2.335 2.335 0 0 1 2.328 2.332v31.172a2.335 2.335 0 0 1-2.328 2.332h-31.172a2.336 2.336 0 0 1-2.332-2.332V238.91a2.336 2.336 0 0 1 2.332-2.332"/></g><g clip-path="url(#j)"><path fill="#50565d" d="M538.832 272.418h-3.582v-3.582h3.582v3.582"/></g><g clip-path="url(#k)"><path fill="#2c2f33" d="M1302.613 441.14v-40.527a3.033 3.033 0 0 1 3.032-3.027h40.523a3.032 3.032 0 0 1 3.027 3.027v40.528a3.032 3.032 0 0 1-3.027 3.027h-40.523a3.033 3.033 0 0 1-3.032-3.027"/></g><g clip-path="url(#l)"><path fill="#2c2f33" d="M1349.207 397.586v4.48h-4.48v-4.48h4.48"/></g><g clip-path="url(#m)"><path fill="#50565d" d="M1385.04 364.074v31.172a2.335 2.335 0 0 1-2.33 2.332h-31.175a2.335 2.335 0 0 1-2.328-2.332v-31.172a2.335 2.335 0 0 1 2.328-2.332h31.176a2.335 2.335 0 0 1 2.328 2.332"/></g><g clip-path="url(#n)"><path fill="#50565d" d="M1349.207 397.578v-3.582h3.582v3.582h-3.582"/></g><g clip-path="url(#o)"><path fill="#50565d" d="M1400.414 398.012h-31.172a2.336 2.336 0 0 1-2.332-2.332v-31.172a2.336 2.336 0 0 1 2.332-2.332h31.172a2.332 2.332 0 0 1 2.328 2.332v31.172a2.332 2.332 0 0 1-2.328 2.332"/></g></svg>