<svg xmlns="http://www.w3.org/2000/svg" width="64" viewBox="0 0 750 750" height="64" version="1.0"><defs><clipPath id="a"><path d="M481.898 481.898h267.88v267.88h-267.88zm0 0"/></clipPath><clipPath id="b"><path d="M0 481.898h267.875v267.88H0zm0 0"/></clipPath><clipPath id="c"><path d="M0 0h267.875v267.875H0zm0 0"/></clipPath><clipPath id="d"><path d="M481.898 0h267.88v267.875h-267.88zm0 0"/></clipPath><clipPath id="e"><path d="M353.309 329.031h66.968V396H353.31zm0 0"/></clipPath><clipPath id="f"><path d="M353.309 329.031h6.93v6.926h-6.93zm0 0"/></clipPath><clipPath id="g"><path d="M301.352 277.07h51.957v51.961h-51.957zm0 0"/></clipPath><clipPath id="h"><path d="M348.684 324.406h4.617v4.617h-4.617zm0 0"/></clipPath></defs><path fill="#fff" d="M701.71 750.516H48.806C21.915 750.516 0 728.606 0 701.71V48.805C0 21.915 21.914 0 48.805 0H701.71c26.894 0 48.805 21.914 48.805 48.805V701.71c0 26.894-21.91 48.805-48.805 48.805"/><g clip-path="url(#a)"><path fill="#fff" d="M732.355 749.777H499.32c-9.597 0-17.422-7.82-17.422-17.422V499.32c0-9.597 7.825-17.422 17.422-17.422h233.035c9.602 0 17.422 7.825 17.422 17.422v233.035c0 9.602-7.82 17.422-17.422 17.422"/></g><g clip-path="url(#b)"><path fill="#fff" d="M250.457 749.777H17.422C7.82 749.777 0 741.957 0 732.355V499.32c0-9.597 7.82-17.422 17.422-17.422h233.035c9.598 0 17.418 7.825 17.418 17.422v233.035c0 9.602-7.82 17.422-17.418 17.422"/></g><g clip-path="url(#c)"><path fill="#fff" d="M250.457 267.875H17.422C7.82 267.875 0 260.055 0 250.457V17.422C0 7.82 7.82 0 17.422 0h233.035c9.598 0 17.418 7.82 17.418 17.422v233.035c0 9.598-7.82 17.418-17.418 17.418"/></g><g clip-path="url(#d)"><path fill="#fff" d="M732.355 267.875H499.32c-9.597 0-17.422-7.82-17.422-17.418V17.422C481.898 7.82 489.723 0 499.32 0h233.035c9.602 0 17.422 7.82 17.422 17.422v233.035c0 9.598-7.82 17.418-17.422 17.418"/></g><g clip-path="url(#e)"><path fill="#2c2f33" d="M415.922 396h-58.258a4.364 4.364 0 0 1-4.355-4.355v-58.258a4.362 4.362 0 0 1 4.355-4.356h58.258a4.36 4.36 0 0 1 4.355 4.356v58.258a4.362 4.362 0 0 1-4.355 4.355"/></g><g clip-path="url(#f)"><path fill="#2c2f33" d="M353.309 329.031h6.93v6.926h-6.93v-6.926"/></g><g clip-path="url(#g)"><path fill="#50565d" d="M304.73 277.07h45.2a3.385 3.385 0 0 1 3.379 3.38v45.202a3.385 3.385 0 0 1-3.38 3.38H304.73a3.385 3.385 0 0 1-3.378-3.38V280.45a3.385 3.385 0 0 1 3.378-3.379"/></g><g clip-path="url(#h)"><path fill="#50565d" d="M353.3 329.023h-4.616v-4.617h4.617v4.617"/></g><path d="M420.865 659.936V426.124c0-4.504-2.425-6.93-6.925-6.93h-53.692c-4.504 0-6.93 2.426-6.93 6.93v233.812c0 4.504 2.426 6.93 6.93 6.93h53.692c4.5 0 6.925-2.426 6.925-6.93zM474.211 666.866h52.996c4.504 0 6.93-2.426 6.93-6.93v-33.25c0-31.176-3.117-68.242-7.621-101.84l1.387-.347c6.582 19.398 25.285 62.351 42.605 91.793l27.363 45.726c1.735 3.117 4.504 4.848 8.317 4.848h55.422c4.504 0 6.925-2.426 6.925-6.93V426.124c0-4.504-2.421-6.93-6.925-6.93h-53c-4.5 0-6.926 2.426-6.926 6.93v42.605c0 28.406 1.383 58.887 4.504 91.45l-1.387.343c-5.543-15.933-21.824-50.57-39.145-83.824l-27.71-52.652c-1.73-3.465-4.157-4.852-7.965-4.852h-55.77c-4.504 0-6.93 2.426-6.93 6.93v233.812c0 4.504 2.426 6.93 6.93 6.93zm0 0"/></svg>