<svg xmlns="http://www.w3.org/2000/svg" width="250" viewBox="0 0 750 750" height="250" version="1.0"><defs><clipPath id="d"><path d="M.762.078h44.16v44.16H.762zm0 0"/></clipPath><clipPath id="c"><path d="M0 0h45v45H0z"/></clipPath><clipPath id="g"><path d="M1 .281h65.48v65.52H1zm0 0"/></clipPath><clipPath id="f"><path d="M0 0h67v66H0z"/></clipPath><mask id="b"><g filter="url(#a)"><path fill-opacity=".749" d="M-75-75h900v900H-75z"/></g></mask><mask id="e"><g filter="url(#a)"><path fill-opacity=".847" d="M-75-75h900v900H-75z"/></g></mask><filter x="0%" y="0%" width="100%" height="100%" id="a"><feColorMatrix values="0 0 0 0 1 0 0 0 0 1 0 0 0 0 1 0 0 0 1 0" color-interpolation-filters="sRGB"/></filter></defs><path fill="#fff" d="M736.582 750H13.418C6.023 750 0 743.977 0 736.586V13.414C0 6.024 6.023 0 13.418 0h723.164C743.977 0 750 6.023 750 13.414v723.172c0 7.39-6.023 13.414-13.418 13.414"/><path d="M431.91 662.892v-224.46c0-4.32-2.328-6.65-6.652-6.65h-51.543c-4.32 0-6.649 2.33-6.649 6.65v224.46c0 4.325 2.328 6.653 6.649 6.653h51.543c4.324 0 6.652-2.328 6.652-6.653zm51.209 6.653h50.879c4.324 0 6.652-2.328 6.652-6.653V630.97c0-29.93-2.996-65.507-7.316-97.765l1.328-.332c6.32 18.62 24.277 59.855 40.902 88.12l26.27 43.895c1.664 2.993 4.324 4.657 7.98 4.657h53.207c4.324 0 6.652-2.328 6.652-6.653v-224.46c0-4.32-2.328-6.65-6.652-6.65h-50.879c-4.32 0-6.648 2.33-6.648 6.65v40.902c0 27.27 1.328 56.531 4.32 87.789l-1.328.332c-5.32-15.297-20.95-48.551-37.578-80.473l-26.602-50.547c-1.664-3.324-3.992-4.652-7.648-4.652h-53.54c-4.32 0-6.648 2.328-6.648 6.648v224.461c0 4.325 2.328 6.653 6.649 6.653zm0 0" fill="#030109"/><g mask="url(#b)"><g clip-path="url(#c)" transform="translate(323 304)"><g clip-path="url(#d)"><path d="M41.816 44.035H3.754A2.85 2.85 0 0 1 .91 41.191V3.13A2.85 2.85 0 0 1 3.754.285h38.062A2.85 2.85 0 0 1 44.66 3.13v38.06a2.85 2.85 0 0 1-2.844 2.844"/></g></g></g><g mask="url(#e)"><g clip-path="url(#f)" transform="translate(366 347)"><g clip-path="url(#g)"><path d="M61.898 65.5H5.352a4.235 4.235 0 0 1-4.23-4.227V4.727A4.235 4.235 0 0 1 5.351.5h56.546a4.234 4.234 0 0 1 4.227 4.227v56.546a4.234 4.234 0 0 1-4.227 4.227"/></g></g></g></svg>
